<svg width="37" height="33" viewBox="0 0 37 33" fill="none" xmlns="http://www.w3.org/2000/svg">
<path d="M36.0261 0.725957C35.961 0.555993 35.8441 0.405555 35.6884 0.291526C35.5328 0.177498 35.3445 0.104392 35.1448 0.0804147C34.9033 0.0545931 29.2244 -0.565127 26.6433 2.09451C24.4823 4.32593 25.3491 7.94312 25.7523 9.22129C25.2477 9.90556 24.0091 11.4871 21.9954 13.654C22.8694 12.2725 23.601 10.5081 23.1398 8.80814C22.203 5.36525 16.8621 3.90202 16.6207 3.84177C16.4302 3.79029 16.2274 3.78675 16.0348 3.83156C15.8422 3.87638 15.6673 3.96779 15.5293 4.09569C15.3627 4.25062 11.4657 7.96894 12.3904 11.3839C13.3152 14.7988 18.6682 16.29 18.9096 16.3502C19.0106 16.3775 19.1156 16.3912 19.2211 16.3911C19.2565 16.3933 19.292 16.3933 19.3273 16.3911C17.7434 17.9469 15.7563 19.7759 13.3683 21.7706C14.1989 20.5097 14.846 18.9561 14.5321 17.4154C13.8222 13.9294 8.57793 12.1951 8.35338 12.1219C8.16404 12.0627 7.95996 12.0514 7.76386 12.0894C7.56776 12.1274 7.38735 12.2131 7.2427 12.3371C7.06644 12.4856 2.9328 15.9952 3.63784 19.4531C4.29458 22.6808 8.83387 24.4023 9.67412 24.7014C6.72676 26.9304 3.65308 29.0233 0.465168 30.9717C0.276085 31.0875 0.133634 31.2542 0.0587464 31.4474C-0.0161415 31.6406 -0.0195175 31.8501 0.0491145 32.0452C0.117747 32.2402 0.254768 32.4105 0.440044 32.5311C0.625321 32.6516 0.849084 32.7159 1.07845 32.7147C1.29677 32.7149 1.50994 32.6556 1.68933 32.5447C4.98025 30.5304 8.15081 28.3641 11.188 26.0549C11.1976 26.0937 11.2105 26.1319 11.2266 26.1689C11.3087 26.3669 13.2669 31.0105 17.205 31.6367C17.5069 31.6855 17.8132 31.7099 18.1201 31.7098C21.7056 31.7098 25.0859 28.5897 25.2405 28.4477C25.3803 28.3196 25.4771 28.1592 25.5198 27.9846C25.5625 27.81 25.5493 27.6283 25.4819 27.46C25.3998 27.262 23.4392 22.6184 19.5012 21.9901C18.1297 21.7749 16.7511 22.0826 15.5317 22.584C17.4633 20.9572 19.11 19.4445 20.4911 18.1082C21.0923 19.1842 23.2388 22.5754 26.6457 22.9391C26.8477 22.9604 27.0508 22.9712 27.2542 22.9713C30.958 22.9713 34.3118 19.4962 34.4591 19.3412C34.5887 19.2053 34.673 19.0397 34.7024 18.8632C34.7319 18.6868 34.7053 18.5065 34.6257 18.3428C34.5315 18.1513 32.2715 13.6088 28.2997 13.1914C26.9838 13.0515 25.6944 13.3872 24.5548 13.9015C26.0373 12.251 27.0031 11.0224 27.4884 10.3811C27.7612 10.3962 28.1041 10.4091 28.4952 10.4091C30.4268 10.4091 33.5657 10.1014 35.2993 8.31323C37.907 5.62562 36.1034 0.923923 36.0261 0.725957ZM9.92523 22.6916C8.491 22.1042 6.10788 20.798 5.76019 19.0916C5.4125 17.3852 7.14129 15.2184 8.24714 14.1425C9.67894 14.7256 12.0717 16.0296 12.4098 17.7446C12.7478 19.4596 11.0311 21.6114 9.92523 22.6916ZM19.1124 23.8729C21.0441 24.1806 22.5169 26.2894 23.1809 27.5568C22.0702 28.4477 19.9793 29.7969 18.1297 29.7969C17.9485 29.7972 17.7675 29.7836 17.5889 29.756C15.6573 29.4483 14.1844 27.3373 13.5204 26.0721C14.7277 25.0909 17.1422 23.5588 19.1124 23.8729ZM18.8855 14.3232C17.4175 13.8132 14.9547 12.6362 14.4862 10.9406C14.0178 9.24496 15.6186 7.00708 16.6593 5.87308C18.108 6.38306 20.5829 7.56225 21.0416 9.26002C21.5004 10.9578 19.9165 13.1892 18.8855 14.3232ZM28.0316 15.0914C29.9777 15.3066 31.5906 17.3271 32.3343 18.558C31.1802 19.5995 28.8791 21.252 26.8968 21.0412C24.9531 20.826 23.3403 18.8033 22.5942 17.5724C23.7507 16.531 26.0517 14.8784 28.0316 15.0914ZM33.655 7.06733C32.3536 8.3993 29.3983 8.56068 27.7661 8.48322C27.3773 7.12758 27.0151 4.66376 28.29 3.34901C29.5649 2.03425 32.5371 1.85566 34.179 1.94388C34.5701 3.28876 34.9299 5.75258 33.655 7.06733Z" fill="#DDA046"/>
</svg>
