<svg width="20" height="20" viewBox="0 0 20 20" fill="none" xmlns="http://www.w3.org/2000/svg">
<path d="M19.5283 4.44786C12.7425 3.09915 13.1818 3.16958 13.0281 3.19543C12.9789 3.20364 12.3767 3.32469 10.9729 3.60543C10.3844 1.9084 8.7698 0.686646 6.875 0.686646C4.97844 0.686646 3.36258 1.91071 2.77543 3.61024L0.700156 3.19786C0.338437 3.12614 0 3.40266 0 3.77258V17.5226C0 17.8022 0.197539 18.0428 0.471719 18.0973C7.20016 19.4346 6.75965 19.3483 6.80426 19.3537C6.94574 19.3711 6.50848 19.4434 13.1254 18.12L19.2998 19.3473C19.6618 19.4191 20 19.1421 20 18.7726V5.02258C20 4.74301 19.8025 4.50239 19.5283 4.44786ZM6.875 1.85852C8.61965 1.85852 10.0391 3.2779 10.0391 5.02258C10.0391 6.49458 7.68367 10.2311 6.875 11.4675C6.06723 10.2325 3.71094 6.49489 3.71094 5.02258C3.71094 3.2779 5.13035 1.85852 6.875 1.85852ZM1.17188 4.48637L2.54727 4.75969C2.54203 4.84668 2.53906 4.93426 2.53906 5.02254C2.53906 5.99965 3.17824 7.57649 4.49316 9.84321C5.26098 11.1668 6.01789 12.3031 6.28906 12.7034V18.0587L1.17188 17.0416V4.48637ZM7.46094 12.7034C7.73207 12.3031 8.48902 11.1668 9.25684 9.84321C10.5718 7.57649 11.2109 5.99965 11.2109 5.02258C11.2109 4.93258 11.2079 4.84329 11.2024 4.75465L12.5391 4.48727V17.0422L7.46094 18.0579V12.7034ZM18.8281 18.0587L13.7109 17.0416V4.48641L18.8281 5.50348V18.0587Z" fill="#DDA046"/>
<path d="M6.875 6.85852C7.88734 6.85852 8.71094 6.03493 8.71094 5.02258C8.71094 4.01024 7.88734 3.18665 6.875 3.18665C5.86266 3.18665 5.03906 4.01024 5.03906 5.02258C5.03906 6.03493 5.86266 6.85852 6.875 6.85852ZM6.875 4.35852C7.24117 4.35852 7.53906 4.65641 7.53906 5.02258C7.53906 5.38876 7.24117 5.68665 6.875 5.68665C6.50883 5.68665 6.21094 5.38876 6.21094 5.02258C6.21094 4.65641 6.50883 4.35852 6.875 4.35852Z" fill="#DDA046"/>
</svg>
