<svg width="20" height="20" viewBox="0 0 20 20" fill="none" xmlns="http://www.w3.org/2000/svg">
<path d="M19.9847 7.74204C19.9847 7.71196 19.978 7.66653 19.9663 7.64036C19.9355 7.52888 19.8672 7.42704 19.765 7.35595L16.902 5.36579V3.23235C16.902 2.94954 16.6726 2.72017 16.3898 2.72017H13.0961L10.2936 0.771808C10.1185 0.649893 9.88594 0.649386 9.71023 0.770792L6.88969 2.72017H3.61039C3.3275 2.72017 3.0982 2.94954 3.0982 3.23235V5.34067L0.221328 7.32899C0.0798047 7.42681 0.00324219 7.58317 0.000820312 7.74306C0.000664063 7.74606 0 7.74892 0 7.75204L0.0152734 18.855C0.0154688 18.9908 0.0696094 19.121 0.165742 19.2169C0.261758 19.3127 0.391836 19.3664 0.527461 19.3664C0.527734 19.3664 0.52793 19.3664 0.528164 19.3664L19.4885 19.3404C19.7713 19.34 20.0004 19.1103 20 18.8275L19.9847 7.74204ZM16.902 6.61341L18.5386 7.75083L16.902 8.88864V6.61341ZM10.0006 1.8156L11.3018 2.72013H8.69191L10.0006 1.8156ZM4.12258 3.74454H15.8776V9.60083L11.9309 12.3447L10.3217 11.0965C10.3192 11.0945 10.3171 11.0933 10.3146 11.0915C10.1348 10.9566 9.88043 10.9517 9.69379 11.0965L8.07297 12.3537L4.12258 9.62349V3.74454ZM3.0982 6.58587V8.91556L1.41281 7.75075L3.0982 6.58587ZM1.0257 8.72899L7.22371 13.0124L1.0382 17.8102L1.0257 8.72899ZM2.02637 18.34L10.0078 12.1492L17.9605 18.3181L2.02637 18.34ZM12.7791 13.0026L18.9617 8.70431L18.9742 17.8082L12.7791 13.0026Z" fill="#DDA046"/>
<path d="M13.4676 5.79346H6.53257C6.24976 5.79346 6.02039 6.02283 6.02039 6.30564C6.02039 6.58846 6.24976 6.81783 6.53257 6.81783H13.4676C13.7505 6.81783 13.9798 6.58846 13.9798 6.30564C13.9798 6.02283 13.7505 5.79346 13.4676 5.79346Z" fill="#DDA046"/>
<path d="M13.4676 8.45679H6.53257C6.24976 8.45679 6.02039 8.68616 6.02039 8.96898C6.02039 9.25179 6.24976 9.48116 6.53257 9.48116H13.4676C13.7505 9.48116 13.9798 9.25179 13.9798 8.96898C13.9798 8.68616 13.7505 8.45679 13.4676 8.45679Z" fill="#DDA046"/>
</svg>
