<svg width="19" height="19" viewBox="0 0 19 19" fill="none" xmlns="http://www.w3.org/2000/svg">
<path d="M12.8895 18.0772H12.6662C11.486 17.9779 10.3375 17.6525 9.28685 17.1197C7.01856 16.0459 5.00969 14.5162 3.39263 12.6314C2.16188 11.2457 1.18819 9.66198 0.515144 7.95114C0.142839 7.08079 -0.0313323 6.1422 0.00462148 5.20002C0.0452502 4.53594 0.343939 3.91183 0.840022 3.45444C1.09818 3.21717 1.34764 2.97426 1.5942 2.73135C1.78565 2.5421 1.96259 2.38393 2.14243 2.21163C2.3107 2.03185 2.51564 1.88824 2.74415 1.78997C2.97265 1.69171 3.2197 1.64095 3.4695 1.64095C3.7193 1.64095 3.96635 1.69171 4.19486 1.78997C4.42337 1.88824 4.62831 2.03185 4.79657 2.21163C5.14756 2.54775 5.49564 2.88953 5.84372 3.23412L6.157 3.53917L6.85317 4.21989C7.04508 4.3845 7.1988 4.58702 7.3041 4.81397C7.40939 5.04092 7.46385 5.2871 7.46385 5.53614C7.46385 5.78518 7.40939 6.03136 7.3041 6.25831C7.1988 6.48526 7.04508 6.68778 6.85317 6.85238L6.53699 7.16026C6.26142 7.42859 5.98876 7.69693 5.71029 7.96244C5.9751 8.50154 6.30944 9.00556 6.70523 9.46228C7.56877 10.5323 8.60879 11.4553 9.78287 12.1936C9.9192 12.2755 10.0729 12.3518 10.2412 12.4309L10.3949 12.5043C10.772 12.1287 11.1549 11.7586 11.5378 11.3886C11.7059 11.2066 11.9114 11.0611 12.1411 10.9614C12.3707 10.8618 12.6193 10.8103 12.8707 10.8103C13.1221 10.8103 13.3706 10.8618 13.6003 10.9614C13.8299 11.0611 14.0354 11.2066 14.2035 11.3886C14.8978 12.0571 15.5881 12.7294 16.2746 13.4054C16.4629 13.5706 16.6135 13.7726 16.7165 13.9981C16.8196 14.2236 16.8728 14.4677 16.8728 14.7145C16.8728 14.9614 16.8196 15.2055 16.7165 15.431C16.6135 15.6565 16.4629 15.8585 16.2746 16.0237C16.1412 16.1537 16.0049 16.2836 15.8685 16.4135C15.6046 16.6649 15.3522 16.9022 15.1231 17.1564C14.8429 17.46 14.4976 17.6999 14.1116 17.859C13.7256 18.0182 13.3084 18.0926 12.8895 18.0772ZM1.60291 7.55852C2.2299 9.14766 3.13583 10.6186 4.28025 11.9055C5.79266 13.6669 7.67097 15.0964 9.79157 16.1C10.7014 16.5748 11.7014 16.8632 12.73 16.9474C13.0118 16.9799 13.2975 16.9455 13.5627 16.8471C13.8279 16.7488 14.0647 16.5893 14.2528 16.3825C14.511 16.1 14.7866 15.8373 15.0563 15.5831C15.1869 15.4588 15.3174 15.3345 15.4479 15.2074C15.5302 15.1478 15.5969 15.0702 15.6429 14.981C15.6889 14.8917 15.7129 14.7932 15.7129 14.6934C15.7129 14.5935 15.6889 14.495 15.6429 14.4058C15.5969 14.3165 15.5302 14.239 15.4479 14.1793C14.7634 13.5052 14.0749 12.8348 13.3826 12.1682C13.3225 12.092 13.2452 12.0303 13.1567 11.9879C13.0681 11.9454 12.9708 11.9233 12.8721 11.9233C12.7734 11.9233 12.6761 11.9454 12.5876 11.9879C12.499 12.0303 12.4217 12.092 12.3616 12.1682C11.9265 12.5891 11.4914 12.9986 11.0882 13.4167C10.9612 13.5592 10.7871 13.6541 10.5959 13.685C10.4048 13.7159 10.2085 13.681 10.041 13.5861C9.93661 13.5296 9.82928 13.4788 9.72486 13.4308C9.54211 13.3432 9.35357 13.2528 9.16792 13.1483C7.88537 12.3434 6.74923 11.3364 5.80601 10.1684C5.2979 9.58407 4.88059 8.93028 4.56742 8.22795C4.48954 8.0702 4.46638 7.89209 4.50143 7.72042C4.53648 7.54875 4.62784 7.39281 4.76176 7.27607C5.08374 6.97384 5.39992 6.66596 5.71319 6.35526L6.02937 6.04456C6.39195 5.68866 6.39195 5.36666 6.02937 5.0023L5.339 4.32723L5.02283 4.01935C4.67764 3.67758 4.33246 3.33863 3.98438 3.00816C3.92364 2.93191 3.84581 2.8702 3.75682 2.82775C3.66783 2.78529 3.57005 2.76322 3.47095 2.76322C3.37186 2.76322 3.27408 2.78529 3.18509 2.82775C3.0961 2.8702 3.01826 2.93191 2.95753 3.00816C2.77769 3.17763 2.60655 3.3471 2.4325 3.51658C2.17724 3.76796 1.91908 4.01935 1.65512 4.26226C1.35946 4.52668 1.18323 4.89426 1.1649 5.28475C1.14255 6.05904 1.28886 6.82915 1.5942 7.5444L1.60291 7.55852ZM18.5691 8.98493H17.4088C17.4057 6.90254 16.5548 4.9063 15.0427 3.43383C13.5305 1.96136 11.4805 1.13281 9.34196 1.12982V0C11.7882 0.00298969 14.1334 0.950573 15.8631 2.63493C17.5929 4.31928 18.566 6.60289 18.5691 8.98493ZM15.4798 8.98493H14.3196C14.318 7.6999 13.7931 6.46793 12.86 5.55927C11.9268 4.65062 10.6616 4.13948 9.34196 4.13798V3.00816C10.9691 3.0104 12.529 3.64081 13.6796 4.76119C14.8301 5.88157 15.4775 7.40048 15.4798 8.98493Z" fill="#DDA046"/>
</svg>
